<svg width="112" height="112" viewBox="0 0 112 112" fill="none" xmlns="http://www.w3.org/2000/svg">
<g filter="url(#filter0_d_892_5330)">
<rect x="24" y="20" width="64" height="64" rx="32" fill="white"/>
<path d="M56 40C56.5523 40 57 40.4477 57 41V44C57 44.5523 56.5523 45 56 45C55.4477 45 55 44.5523 55 44V41C55 40.4477 55.4477 40 56 40Z" fill="#00AEC7"/>
<path d="M47.4645 43.4645C47.855 43.0739 48.4882 43.0739 48.8787 43.4645L50.7071 45.2929C51.0976 45.6834 51.0976 46.3166 50.7071 46.7071C50.3166 47.0976 49.6834 47.0976 49.2929 46.7071L47.4645 44.8787C47.0739 44.4882 47.0739 43.855 47.4645 43.4645Z" fill="#00AEC7"/>
<path d="M44 52C44 51.4477 44.4477 51 45 51H48.1716C48.7239 51 49.1716 51.4477 49.1716 52C49.1716 52.5523 48.7239 53 48.1716 53H45C44.4477 53 44 52.5523 44 52Z" fill="#00AEC7"/>
<path d="M63 52C63 51.4477 63.4477 51 64 51L67 51C67.5523 51 68 51.4477 68 52C68 52.5523 67.5523 53 67 53H64C63.4477 53 63 52.5523 63 52Z" fill="#00AEC7"/>
<path d="M64.5087 43.5084C64.2217 43.2215 63.7622 43.2036 63.4539 43.4675L55.0945 50.6211C54.2889 51.3105 54.2412 52.54 54.991 53.2897C55.758 54.0568 57.0216 53.9864 57.6987 53.1389L64.5663 44.5431C64.8134 44.2338 64.7886 43.7883 64.5087 43.5084Z" fill="#00AEC7"/>
<path fill-rule="evenodd" clip-rule="evenodd" d="M53.3275 67.7778C45.7631 66.5059 40 59.926 40 52C40 43.1634 47.1634 36 56 36C64.8366 36 72 43.1634 72 52C72 55.0328 71.1562 57.8685 69.6905 60.2852C66.8858 64.9099 61.8038 68 56.0001 68C55.0895 68 54.1966 67.9239 53.3275 67.7778ZM43.9981 59.2119C47.5286 57.1692 51.6278 56 56.0001 56C60.3723 56 64.4715 57.1692 68.002 59.2119C69.2704 57.1055 70 54.638 70 52C70 44.268 63.732 38 56 38C48.268 38 42 44.268 42 52C42 54.638 42.7296 57.1056 43.9981 59.2119Z" fill="#00AEC7"/>
</g>
<defs>
<filter id="filter0_d_892_5330" x="0" y="0" width="112" height="112" filterUnits="userSpaceOnUse" color-interpolation-filters="sRGB">
<feFlood flood-opacity="0" result="BackgroundImageFix"/>
<feColorMatrix in="SourceAlpha" type="matrix" values="0 0 0 0 0 0 0 0 0 0 0 0 0 0 0 0 0 0 127 0" result="hardAlpha"/>
<feOffset dy="4"/>
<feGaussianBlur stdDeviation="12"/>
<feComposite in2="hardAlpha" operator="out"/>
<feColorMatrix type="matrix" values="0 0 0 0 0 0 0 0 0 0 0 0 0 0 0 0 0 0 0.1 0"/>
<feBlend mode="normal" in2="BackgroundImageFix" result="effect1_dropShadow_892_5330"/>
<feBlend mode="normal" in="SourceGraphic" in2="effect1_dropShadow_892_5330" result="shape"/>
</filter>
</defs>
</svg>
