<svg width="112" height="112" viewBox="0 0 112 112" fill="none" xmlns="http://www.w3.org/2000/svg">
<g filter="url(#filter0_d_892_5267)">
<rect x="24" y="20" width="64" height="64" rx="32" fill="white"/>
<path d="M58.5858 36H48C45.7909 36 44 37.7909 44 40V64C44 66.2091 45.7909 68 48 68H64C66.2091 68 68 66.2091 68 64V45.4142C68 44.8838 67.7893 44.3751 67.4142 44L60 36.5858C59.6249 36.2107 59.1162 36 58.5858 36ZM59 43V39L65 45H61C59.8954 45 59 44.1046 59 43ZM61.7071 51.7071L55.7071 57.7071C55.5196 57.8946 55.2652 58 55 58C54.7348 58 54.4804 57.8946 54.2929 57.7071L51.2929 54.7071C50.9024 54.3166 50.9024 53.6834 51.2929 53.2929C51.6834 52.9024 52.3166 52.9024 52.7071 53.2929L55 55.5858L60.2929 50.2929C60.6834 49.9024 61.3166 49.9024 61.7071 50.2929C62.0976 50.6834 62.0976 51.3166 61.7071 51.7071Z" fill="#00AEC7"/>
</g>
<defs>
<filter id="filter0_d_892_5267" x="0" y="0" width="112" height="112" filterUnits="userSpaceOnUse" color-interpolation-filters="sRGB">
<feFlood flood-opacity="0" result="BackgroundImageFix"/>
<feColorMatrix in="SourceAlpha" type="matrix" values="0 0 0 0 0 0 0 0 0 0 0 0 0 0 0 0 0 0 127 0" result="hardAlpha"/>
<feOffset dy="4"/>
<feGaussianBlur stdDeviation="12"/>
<feComposite in2="hardAlpha" operator="out"/>
<feColorMatrix type="matrix" values="0 0 0 0 0 0 0 0 0 0 0 0 0 0 0 0 0 0 0.1 0"/>
<feBlend mode="normal" in2="BackgroundImageFix" result="effect1_dropShadow_892_5267"/>
<feBlend mode="normal" in="SourceGraphic" in2="effect1_dropShadow_892_5267" result="shape"/>
</filter>
</defs>
</svg>
