<svg width="112" height="112" viewBox="0 0 112 112" fill="none" xmlns="http://www.w3.org/2000/svg">
<g filter="url(#filter0_d_892_5295)">
<rect x="24" y="20" width="64" height="64" rx="32" fill="white"/>
<path fill-rule="evenodd" clip-rule="evenodd" d="M51.6574 56.3437C51.2669 55.9532 50.6337 55.9532 50.2432 56.3437L42.0508 64.5361L42.0508 59.0005C42.0508 58.4482 41.6031 58.0005 41.0508 58.0005C40.4985 58.0005 40.0508 58.4482 40.0508 59.0005L40.0508 66.9503C40.0508 67.5026 40.4985 67.9503 41.0508 67.9503L49.0005 67.9503C49.5527 67.9503 50.0005 67.5026 50.0005 66.9503C50.0005 66.398 49.5527 65.9503 49.0005 65.9503L43.465 65.9503L51.6574 57.7579C52.0479 57.3674 52.0479 56.7342 51.6574 56.3437Z" fill="#00AEC7"/>
<path fill-rule="evenodd" clip-rule="evenodd" d="M60.3426 56.3437C60.7331 55.9532 61.3663 55.9532 61.7568 56.3437L69.9492 64.5361L69.9492 59.0005C69.9492 58.4482 70.3969 58.0005 70.9492 58.0005C71.5015 58.0005 71.9492 58.4482 71.9492 59.0005L71.9492 66.9503C71.9492 67.5026 71.5015 67.9503 70.9492 67.9503L62.9995 67.9503C62.4473 67.9503 61.9995 67.5026 61.9995 66.9503C61.9995 66.398 62.4473 65.9503 62.9995 65.9503L68.535 65.9503L60.3426 57.7579C59.9521 57.3674 59.9521 56.7342 60.3426 56.3437Z" fill="#00AEC7"/>
<path fill-rule="evenodd" clip-rule="evenodd" d="M60.3426 47.6563C60.7331 48.0468 61.3663 48.0468 61.7568 47.6563L69.9492 39.4639L69.9492 44.9995C69.9492 45.5518 70.3969 45.9995 70.9492 45.9995C71.5015 45.9995 71.9492 45.5518 71.9492 44.9995L71.9492 37.0497C71.9492 36.4974 71.5015 36.0497 70.9492 36.0497L62.9995 36.0497C62.4473 36.0497 61.9995 36.4974 61.9995 37.0497C61.9995 37.602 62.4473 38.0497 62.9995 38.0497L68.535 38.0497L60.3426 46.2421C59.9521 46.6326 59.9521 47.2658 60.3426 47.6563Z" fill="#00AEC7"/>
<path fill-rule="evenodd" clip-rule="evenodd" d="M51.6574 47.6563C51.2669 48.0468 50.6337 48.0468 50.2432 47.6563L42.0508 39.4639L42.0508 44.9995C42.0508 45.5518 41.6031 45.9995 41.0508 45.9995C40.4985 45.9995 40.0508 45.5518 40.0508 44.9995L40.0508 37.0497C40.0508 36.4974 40.4985 36.0497 41.0508 36.0497L49.0005 36.0497C49.5527 36.0497 50.0005 36.4974 50.0005 37.0497C50.0005 37.602 49.5527 38.0497 49.0005 38.0497L43.465 38.0497L51.6574 46.2421C52.0479 46.6326 52.0479 47.2658 51.6574 47.6563Z" fill="#00AEC7"/>
</g>
<defs>
<filter id="filter0_d_892_5295" x="0" y="0" width="112" height="112" filterUnits="userSpaceOnUse" color-interpolation-filters="sRGB">
<feFlood flood-opacity="0" result="BackgroundImageFix"/>
<feColorMatrix in="SourceAlpha" type="matrix" values="0 0 0 0 0 0 0 0 0 0 0 0 0 0 0 0 0 0 127 0" result="hardAlpha"/>
<feOffset dy="4"/>
<feGaussianBlur stdDeviation="12"/>
<feComposite in2="hardAlpha" operator="out"/>
<feColorMatrix type="matrix" values="0 0 0 0 0 0 0 0 0 0 0 0 0 0 0 0 0 0 0.1 0"/>
<feBlend mode="normal" in2="BackgroundImageFix" result="effect1_dropShadow_892_5295"/>
<feBlend mode="normal" in="SourceGraphic" in2="effect1_dropShadow_892_5295" result="shape"/>
</filter>
</defs>
</svg>
